<svg width="512" height="805" viewBox="0 0 512 805" fill="none" xmlns="http://www.w3.org/2000/svg">
  <defs>
    <linearGradient id="advancedlevelTextureBase" x1="0" y1="0" x2="0" y2="805" gradientUnits="userSpaceOnUse">
      <stop offset="0" stop-color="#F6ECE7"/>
      <stop offset="1" stop-color="#E7CFC5"/>
    </linearGradient>
    <radialGradient id="advancedlevelTextureBlushA" cx="0" cy="0" r="1" gradientUnits="userSpaceOnUse" gradientTransform="translate(162 236) rotate(48) scale(372 286)">
      <stop offset="0" stop-color="#FAF1EC"/>
      <stop offset="1" stop-color="#E2BFAF" stop-opacity="0"/>
    </radialGradient>
    <radialGradient id="advancedlevelTextureBlushB" cx="0" cy="0" r="1" gradientUnits="userSpaceOnUse" gradientTransform="translate(312 592) rotate(132) scale(431 244)">
      <stop offset="0" stop-color="#D19D90" stop-opacity="0.58"/>
      <stop offset="1" stop-color="#EEDDD6" stop-opacity="0"/>
    </radialGradient>
    <filter id="advancedlevelNoiseFilter" x="-20%" y="-20%" width="140%" height="140%">
      <feTurbulence type="fractalNoise" baseFrequency="0.84" numOctaves="3" stitchTiles="stitch" result="noise"/>
      <feColorMatrix in="noise" type="matrix" values="0 0 0 0 0.98 0 0 0 0 0.91 0 0 0 0 0.88 0 0 0 0.22 0" result="tone"/>
      <feGaussianBlur stdDeviation="0.28"/>
    </filter>
    <linearGradient id="advancedlevelStreakA" x1="0" y1="0" x2="1" y2="1">
      <stop offset="0" stop-color="#FFFFFF" stop-opacity="0.74"/>
      <stop offset="1" stop-color="#F0D8CF" stop-opacity="0.16"/>
    </linearGradient>
  </defs>

  <rect width="512" height="805" fill="url(#advancedlevelTextureBase)"/>
  <rect width="512" height="805" fill="url(#advancedlevelTextureBlushA)"/>
  <rect width="512" height="805" fill="url(#advancedlevelTextureBlushB)"/>

  <g filter="url(#advancedlevelNoiseFilter)">
    <rect width="512" height="805" fill="#FFFFFF" fill-opacity="0.33"/>
  </g>

  <path d="M-74 213C34 239 130 286 185 333C241 382 270 458 199 514C127 571 89 623 140 690" stroke="url(#advancedlevelStreakA)" stroke-width="34" stroke-linecap="round" stroke-linejoin="round" opacity="0.56"/>
  <path d="M30 752C157 682 213 576 191 497C169 416 132 342 198 246" stroke="url(#advancedlevelStreakA)" stroke-width="22" stroke-linecap="round" stroke-linejoin="round" opacity="0.45"/>
  <path d="M354 72C300 164 267 235 281 307C296 384 315 454 249 526" stroke="url(#advancedlevelStreakA)" stroke-width="20" stroke-linecap="round" stroke-linejoin="round" opacity="0.42"/>
  <path d="M-20 523C68 513 109 549 139 594C164 631 194 673 247 706" stroke="url(#advancedlevelStreakA)" stroke-width="14" stroke-linecap="round" stroke-linejoin="round" opacity="0.34"/>
</svg>
