<svg width="20" height="16" viewBox="0 0 20 16" fill="none" xmlns="http://www.w3.org/2000/svg">
<g clip-path="url(#clip0_116_329)">
<g clip-path="url(#clip1_116_329)">
<path d="M17 0H3C1.34315 0 0 1.34315 0 3V13C0 14.6569 1.34315 16 3 16H17C18.6569 16 20 14.6569 20 13V3C20 1.34315 18.6569 0 17 0Z" fill="white" fill-opacity="0.2"/>
<path d="M17.6841 8.88324H17.2008C17.1008 8.88324 17.0174 8.81657 17.0174 8.73323C17.0174 8.63322 17.1008 8.58322 17.2008 8.58322H18.0842L18.2842 8.1332H17.2008C16.7508 8.1332 16.5008 8.39988 16.5008 8.7499C16.5008 9.11658 16.7508 9.33326 17.1341 9.33326H17.6175C17.7175 9.33326 17.8008 9.39993 17.8008 9.48327C17.8008 9.5666 17.7341 9.63327 17.6175 9.63327H16.5508V10.0833H17.6175C18.0675 10.0833 18.3175 9.81662 18.3175 9.44993C18.3175 9.08325 18.0842 8.88324 17.6841 8.88324ZM15.734 8.88324H15.2507C15.1507 8.88324 15.0674 8.81657 15.0674 8.73323C15.0674 8.63322 15.1507 8.58322 15.2507 8.58322H16.1341L16.3341 8.1332H15.2507C14.8007 8.1332 14.5507 8.39988 14.5507 8.7499C14.5507 9.11658 14.8007 9.33326 15.184 9.33326H15.6674C15.7674 9.33326 15.8507 9.39993 15.8507 9.48327C15.8507 9.5666 15.7841 9.63327 15.6674 9.63327H14.6007V10.0833H15.6674C16.1174 10.0833 16.3674 9.81662 16.3674 9.44993C16.3841 9.08325 16.1507 8.88324 15.734 8.88324ZM12.6506 10.1H14.3173V9.64994H13.1839V9.33326H14.3006V8.88324H13.1839V8.56655H14.3173V8.11653H12.6506V10.1ZM11.6172 8.96657H11.0672V8.56655H11.6172C11.7672 8.56655 11.8505 8.66656 11.8505 8.76656C11.8505 8.88324 11.7672 8.96657 11.6172 8.96657ZM12.3839 8.7499C12.3839 8.36654 12.1172 8.11653 11.6838 8.11653H10.5338V10.1H11.0672V9.4166H11.2672L11.8672 10.1H12.5006L11.8505 9.38326C12.1839 9.29992 12.3839 9.06658 12.3839 8.7499ZM9.53374 8.99991H8.96705V8.56655H9.53374C9.68375 8.56655 9.76709 8.66656 9.76709 8.78323C9.76709 8.8999 9.70042 8.99991 9.53374 8.99991ZM9.60041 8.11653H8.45036V10.1H8.98372V9.44993H9.60041C10.0504 9.44993 10.3171 9.16658 10.3171 8.78323C10.3004 8.38321 10.0338 8.11653 9.60041 8.11653ZM8.35035 8.11653H7.66698L7.16696 8.71656L6.65027 8.11653H5.95023L6.83361 9.09991L5.93356 10.1H6.61693L7.15029 9.4666L7.68365 10.1H8.38369L7.48364 9.08325L8.35035 8.11653ZM4.20015 10.1H5.86689V9.64994H4.71684V9.33326H5.83356V8.88324H4.71684V8.56655H5.86689V8.11653H4.20015V10.1ZM17.4841 6.78313L16.6674 5.58307H16.0007V7.54984H16.5341V6.29978L17.3675 7.54984H18.0008V5.58307H17.4841V6.78313ZM14.4173 6.71646L14.7007 6.04976L14.984 6.71646H14.4173ZM14.3506 5.58307L13.4839 7.5665H14.0673L14.234 7.16649H15.1507L15.3174 7.5665H15.9174L15.034 5.58307H14.3506ZM12.6172 6.58312V6.54979C12.6172 6.24977 12.7839 6.04976 13.1173 6.04976H13.7006V5.56641H13.0673C12.4172 5.56641 12.0839 5.98309 12.0839 6.53312V6.56646C12.0839 7.18315 12.4672 7.53317 13.0506 7.53317H13.2339L13.4506 7.08315H13.1339C12.8172 7.09982 12.6172 6.91647 12.6172 6.58312ZM11.2838 5.58307V7.54984H11.8172V5.58307H11.2838ZM10.2504 6.41645H9.70042V6.01643H10.2504C10.4005 6.01643 10.4838 6.11643 10.4838 6.21644C10.4838 6.33311 10.4005 6.41645 10.2504 6.41645ZM11.0171 6.21644C11.0171 5.83309 10.7505 5.58307 10.3171 5.58307H9.16706V7.5665H9.70042V6.86647H9.90043L10.5005 7.54984H11.1505L10.4838 6.83314C10.8171 6.76647 11.0171 6.51645 11.0171 6.21644ZM7.15029 7.54984H8.81704V7.09982H7.68365V6.78313H8.78371V6.33311H7.68365V6.01643H8.81704V5.58307H7.15029V7.54984ZM5.46687 6.81647L5.01685 5.58307H4.20015V7.54984H4.71684V6.1331L5.23353 7.54984H5.70022L6.21691 6.1331V7.54984H6.75027V5.58307H5.9169L5.46687 6.81647ZM2.60007 6.71646L2.88341 6.04976L3.16676 6.71646H2.60007ZM2.5334 5.58307L1.66669 7.54984H2.25005L2.41672 7.14982H3.33344L3.50011 7.54984H4.10014L3.21676 5.58307H2.5334Z" fill="#EADFD6"/>
</g>
</g>
<defs>
<clipPath id="clip0_116_329">
<rect width="20" height="16" fill="white"/>
</clipPath>
<clipPath id="clip1_116_329">
<rect width="20" height="16" fill="white"/>
</clipPath>
</defs>
</svg>
