<svg width="30" height="30" viewBox="0 0 30 30" fill="none" xmlns="http://www.w3.org/2000/svg">
<path fill-rule="evenodd" clip-rule="evenodd" d="M25.0475 15.2019C25.6405 15.7804 25.6522 16.7301 25.0736 17.323L16.0736 26.5475C15.7913 26.8368 15.4042 26.9999 15 26.9999C14.5958 26.9999 14.2086 26.8368 13.9264 26.5475L4.92636 17.323C4.34783 16.7301 4.35953 15.7804 4.95248 15.2019C5.54544 14.6233 6.49511 14.635 7.07364 15.228L13.5 21.8146V4.5C13.5 3.67157 14.1716 3 15 3C15.8284 3 16.5 3.67157 16.5 4.5V21.8146L22.9264 15.228C23.5049 14.635 24.4546 14.6233 25.0475 15.2019Z" fill="#EADFD6"/>
</svg>
