<svg width="20" height="17" viewBox="0 0 20 17" fill="none" xmlns="http://www.w3.org/2000/svg">
<rect width="20" height="16.25" fill="#EADFD6"/>
<path fill-rule="evenodd" clip-rule="evenodd" d="M5.45346 2.7095C5.39447 2.82748 5.2739 2.90199 5.142 2.90199H3.03578C1.75369 2.90199 0.714355 3.94133 0.714355 5.22342V13.3484C0.714355 14.6305 1.75369 15.6699 3.03578 15.6699H16.9644C18.2465 15.6699 19.2858 14.6305 19.2858 13.3484V5.22342C19.2858 3.94133 18.2465 2.90199 16.9644 2.90199H14.8581C14.7263 2.90199 14.6057 2.82748 14.5467 2.7095L13.9634 1.54301C13.6685 0.953159 13.0656 0.580566 12.4061 0.580566H7.59397C6.9345 0.580566 6.33163 0.953159 6.03671 1.54301L5.45346 2.7095ZM10.0001 13.3484C12.5642 13.3484 14.6429 11.2697 14.6429 8.70557C14.6429 6.14139 12.5642 4.06271 10.0001 4.06271C7.43589 4.06271 5.35721 6.14139 5.35721 8.70557C5.35721 11.2697 7.43589 13.3484 10.0001 13.3484Z" fill="#A39187"/>
</svg>
