<svg width="20" height="17" viewBox="0 0 20 17" fill="none" xmlns="http://www.w3.org/2000/svg">
<rect width="20" height="16.25" fill="#EADFD6"/>
<path fill-rule="evenodd" clip-rule="evenodd" d="M5.4534 2.7095C5.39441 2.82748 5.27384 2.90199 5.14194 2.90199H3.03572C1.75363 2.90199 0.714294 3.94133 0.714294 5.22342V13.3484C0.714294 14.6305 1.75363 15.6699 3.03572 15.6699H16.9643C18.2464 15.6699 19.2857 14.6305 19.2857 13.3484V5.22342C19.2857 3.94133 18.2464 2.90199 16.9643 2.90199H14.8581C14.7262 2.90199 14.6056 2.82748 14.5466 2.7095L13.9634 1.54301C13.6684 0.953159 13.0656 0.580566 12.4061 0.580566H7.59391C6.93443 0.580566 6.33157 0.953159 6.03665 1.54301L5.4534 2.7095ZM10 13.3484C12.5641 13.3484 14.6429 11.2697 14.6429 8.70557C14.6429 6.14139 12.5641 4.06271 10 4.06271C7.43583 4.06271 5.35715 6.14139 5.35715 8.70557C5.35715 11.2697 7.43583 13.3484 10 13.3484Z" fill="#A39187"/>
</svg>
