<svg width="28" height="28" viewBox="0 0 28 28" fill="none" xmlns="http://www.w3.org/2000/svg">
<path d="M0 14C0 6.26801 6.26801 0 14 0C21.732 0 28 6.26801 28 14C28 21.732 21.732 28 14 28C6.26801 28 0 21.732 0 14Z" fill="#A39187" fill-opacity="0.33"/>
<g clip-path="url(#clip0_124_269)">
<path d="M14 24C19.5228 24 24 19.5228 24 14C24 8.47715 19.5228 4 14 4C8.47715 4 4 8.47715 4 14C4 19.5228 8.47715 24 14 24Z" fill="#A39187"/>
<path fill-rule="evenodd" clip-rule="evenodd" d="M14 9C14.4142 9 14.75 9.33579 14.75 9.75V13.75H17C17.4142 13.75 17.75 14.0858 17.75 14.5C17.75 14.9142 17.4142 15.25 17 15.25H13.25V9.75C13.25 9.33579 13.5858 9 14 9Z" fill="#E5AE99"/>
</g>
<defs>
<clipPath id="clip0_124_269">
<rect width="20" height="20" fill="white" transform="translate(4 4)"/>
</clipPath>
</defs>
</svg>
