<svg width="30" height="30" viewBox="0 0 30 30" fill="none" xmlns="http://www.w3.org/2000/svg">
<g clip-path="url(#clip0_395_5916)">
<g clip-path="url(#clip1_395_5916)">
<g clip-path="url(#clip2_395_5916)">
<mask id="mask0_395_5916" style="mask-type:luminance" maskUnits="userSpaceOnUse" x="0" y="0" width="30" height="30">
<path d="M30 0H0V30H30V0Z" fill="white"/>
</mask>
<g mask="url(#mask0_395_5916)">
<path d="M15.0001 30C17.9668 30 20.8669 29.1203 23.3336 27.4721C25.8004 25.8238 27.7229 23.4812 28.8583 20.7403C29.9936 17.9993 30.2906 14.9834 29.7118 12.0737C29.1331 9.16392 27.7045 6.49122 25.6066 4.3934C23.5088 2.29562 20.8361 0.867006 17.9264 0.288227C15.0167 -0.290551 12.0007 0.00649931 9.2598 1.14181C6.51888 2.27713 4.17622 4.19972 2.528 6.66648C0.87978 9.1332 4.3683e-05 12.0333 4.3683e-05 15C-0.00471902 16.9712 0.380017 18.9239 1.13215 20.7459C1.88428 22.5679 2.989 24.2234 4.38282 25.6172C5.77665 27.011 7.43214 28.1158 9.25416 28.8679C11.0762 29.62 13.0289 30.0047 15.0001 30Z" fill="#2775CA"/>
<path d="M19.1254 17.3752C19.1254 15.1878 17.8129 14.4377 15.188 14.1251C13.3132 13.8753 12.9385 13.375 12.9385 12.5001C12.9385 11.6251 13.5636 11.0627 14.8133 11.0627C15.9381 11.0627 16.5638 11.4375 16.8758 12.3752C16.9085 12.4656 16.9679 12.5439 17.0461 12.5997C17.1244 12.6556 17.2178 12.6862 17.3139 12.6877H18.3137C18.3716 12.6891 18.4291 12.6787 18.4828 12.6573C18.5365 12.6358 18.5853 12.6036 18.6262 12.5627C18.6671 12.5218 18.6992 12.473 18.7208 12.4193C18.7423 12.3656 18.7526 12.3081 18.7513 12.2503V12.1875C18.6302 11.5102 18.2889 10.8919 17.7803 10.4286C17.2717 9.96524 16.6243 9.68288 15.9387 9.62534V8.12522C15.9387 7.87544 15.751 7.68776 15.4384 7.625H14.5007C14.2503 7.625 14.0632 7.81268 14.0005 8.12522V9.56258C12.1256 9.81242 10.9381 11.0627 10.9381 12.625C10.9381 14.6875 12.1878 15.5003 14.8127 15.8129C16.5632 16.1249 17.1256 16.5002 17.1256 17.5001C17.1256 18.5 16.2506 19.1879 15.0631 19.1879C13.4381 19.1879 12.8728 18.5 12.688 17.5629C12.6253 17.313 12.4382 17.1875 12.2506 17.1875H11.1891C11.1313 17.1861 11.0738 17.1965 11.0201 17.218C10.9664 17.2395 10.9176 17.2717 10.8767 17.3126C10.8358 17.3535 10.8036 17.4022 10.7821 17.4559C10.7606 17.5097 10.7503 17.5672 10.7516 17.625V17.6878C11.0014 19.2501 12.0019 20.3754 14.0668 20.688V22.1875C14.0668 22.4379 14.2538 22.625 14.5664 22.6878H15.5042C15.754 22.6878 15.9416 22.5001 16.0038 22.1875V20.688C17.8792 20.3754 19.129 19.0624 19.129 17.3728L19.1254 17.3752Z" fill="white"/>
<path d="M11.8127 23.937C6.93763 22.1871 4.43765 16.7496 6.24799 11.9373C7.18513 9.31232 9.24763 7.31198 11.8127 6.3725C12.0625 6.24758 12.1875 6.0599 12.1875 5.74735V4.87474C12.1875 4.62492 12.0625 4.43726 11.8127 4.37451C11.75 4.37451 11.6251 4.37451 11.5623 4.43726C5.62401 6.31214 2.37513 12.6246 4.24998 18.5623C4.79466 20.2774 5.74307 21.8367 7.01551 23.1091C8.28793 24.3816 9.84721 25.33 11.5623 25.8746C11.8127 25.9995 12.0625 25.8746 12.1253 25.6248C12.1875 25.5621 12.1875 25.4999 12.1875 25.375V24.5C12.1875 24.3124 12.0004 24.0625 11.8127 23.937ZM18.4378 4.43963C18.1873 4.31472 17.9376 4.43963 17.8754 4.68945C17.8126 4.7522 17.8126 4.81436 17.8126 4.93987V5.81247C17.8126 6.0623 18.0003 6.31214 18.1873 6.437C23.0625 8.18696 25.5624 13.6245 23.7521 18.4374C22.8144 21.0623 20.7519 23.062 18.1873 24.0021C17.9376 24.127 17.8126 24.3147 17.8126 24.6273V25.5022C17.8126 25.7521 17.9376 25.9398 18.1873 26.0019C18.2501 26.0019 18.375 26.0019 18.4378 25.9398C24.3749 24.0625 27.625 17.7495 25.7519 11.8123C25.2085 10.0895 24.2611 8.52152 22.9888 7.23908C21.7166 5.95659 20.1562 4.99678 18.4378 4.43963Z" fill="white"/>
</g>
</g>
</g>
</g>
<defs>
<clipPath id="clip0_395_5916">
<rect width="30" height="30" fill="white"/>
</clipPath>
<clipPath id="clip1_395_5916">
<rect width="30" height="30" fill="white"/>
</clipPath>
<clipPath id="clip2_395_5916">
<rect width="30" height="30" fill="white"/>
</clipPath>
</defs>
</svg>
