<svg width="24" height="24" viewBox="0 0 24 24" fill="none" xmlns="http://www.w3.org/2000/svg">
<path d="M2.85001 9.3498C2.85001 8.9268 3.06801 8.4998 3.48501 8.2068L10.981 3.0348C11.2827 2.83443 11.6378 2.72754 12 2.72754C12.3622 2.72754 12.7163 2.83443 13.018 3.0348L20.513 8.2048L20.515 8.2068C20.932 8.4998 21.15 8.9268 21.15 9.3488V19.6998C21.15 20.4298 20.474 21.1498 19.5 21.1498H4.50001C3.52601 21.1498 2.85001 20.4298 2.85001 19.6998V9.3498Z" stroke="#A39187" stroke-width="1.7"/>
<path d="M17.25 15C15.8064 16.2914 13.9369 17.0043 12 17.002C10.0631 17.0043 8.19355 16.2914 6.75 15" stroke="#A39187" stroke-width="1.7" stroke-linecap="round"/>
</svg>
