<svg width="24" height="24" viewBox="0 0 24 24" fill="none" xmlns="http://www.w3.org/2000/svg">
<path d="M2.8501 9.3498C2.8501 8.9268 3.0681 8.4998 3.4851 8.2068L10.9811 3.0348C11.2828 2.83443 11.6379 2.72754 12.0001 2.72754C12.3623 2.72754 12.7164 2.83443 13.0181 3.0348L20.5131 8.2048L20.5151 8.2068C20.9321 8.4998 21.1501 8.9268 21.1501 9.3488V19.6998C21.1501 20.4298 20.4741 21.1498 19.5001 21.1498H4.5001C3.5261 21.1498 2.8501 20.4298 2.8501 19.6998V9.3498Z" stroke="#E5AE99" stroke-width="1.7"/>
<path d="M17.25 15C15.8064 16.2914 13.9369 17.0043 12 17.002C10.0631 17.0043 8.19355 16.2914 6.75 15" stroke="#E5AE99" stroke-width="1.7" stroke-linecap="round"/>
</svg>
