<svg width="20" height="20" viewBox="0 0 20 20" fill="none" xmlns="http://www.w3.org/2000/svg">
<g clip-path="url(#clip0_116_303)">
<path fill-rule="evenodd" clip-rule="evenodd" d="M7.03019 16.3418C7.75027 16.399 8.67435 16.3999 9.99999 16.3999C11.3256 16.3999 12.2497 16.399 12.9698 16.3418C13.6765 16.2856 14.0835 16.1809 14.3922 16.0287C15.103 15.6781 15.6782 15.1029 16.0288 14.3921C16.181 14.0834 16.2857 13.6764 16.3419 12.9697C16.3991 12.2496 16.4 11.3255 16.4 9.9999C16.4 8.67426 16.3991 7.75018 16.3419 7.0301C16.2857 6.32338 16.181 5.91638 16.0288 5.60766C15.6782 4.8969 15.103 4.32166 14.3922 3.97116C14.0835 3.81891 13.6765 3.71416 12.9698 3.65801C12.2497 3.60079 11.3256 3.5999 9.99999 3.5999C8.67435 3.5999 7.75027 3.60079 7.03019 3.65801C6.32347 3.71416 5.91647 3.81891 5.60775 3.97116C4.89699 4.32166 4.32175 4.8969 3.97125 5.60766C3.819 5.91638 3.71425 6.32338 3.6581 7.0301C3.60088 7.75018 3.59999 8.67426 3.59999 9.9999C3.59999 11.3255 3.60088 12.2496 3.6581 12.9697C3.71425 13.6764 3.819 14.0834 3.97125 14.3921C4.32175 15.1029 4.89699 15.6781 5.60775 16.0287C5.91647 16.1809 6.32347 16.2856 7.03019 16.3418ZM2.89501 5.0769C2.39999 6.0807 2.39999 7.3871 2.39999 9.9999C2.39999 12.6127 2.39999 13.9191 2.89501 14.9229C3.36235 15.8706 4.12931 16.6375 5.07699 17.1049C6.08079 17.5999 7.38719 17.5999 9.99999 17.5999C12.6128 17.5999 13.9192 17.5999 14.923 17.1049C15.8707 16.6375 16.6376 15.8706 17.105 14.9229C17.6 13.9191 17.6 12.6127 17.6 9.9999C17.6 7.3871 17.6 6.0807 17.105 5.0769C16.6376 4.12922 15.8707 3.36225 14.923 2.89491C13.9192 2.3999 12.6128 2.3999 9.99999 2.3999C7.38719 2.3999 6.08079 2.3999 5.07699 2.89491C4.12931 3.36225 3.36235 4.12922 2.89501 5.0769Z" fill="#EADFD6"/>
<path fill-rule="evenodd" clip-rule="evenodd" d="M10 7.33428C8.52781 7.33428 7.33437 8.52772 7.33437 9.99992C7.33437 11.4721 8.52781 12.6656 10 12.6656C11.4722 12.6656 12.6656 11.4721 12.6656 9.99992C12.6656 8.52772 11.4722 7.33428 10 7.33428ZM6.13437 9.99992C6.13437 7.865 7.86509 6.13428 10 6.13428C12.1349 6.13428 13.8656 7.865 13.8656 9.99992C13.8656 12.1348 12.1349 13.8656 10 13.8656C7.86509 13.8656 6.13437 12.1348 6.13437 9.99992Z" fill="#EADFD6"/>
<path d="M14.0375 6.85303C14.5294 6.85303 14.9282 6.45428 14.9282 5.9624C14.9282 5.47052 14.5294 5.07178 14.0375 5.07178C13.5457 5.07178 13.1469 5.47052 13.1469 5.9624C13.1469 6.45428 13.5457 6.85303 14.0375 6.85303Z" fill="#EADFD6"/>
</g>
<defs>
<clipPath id="clip0_116_303">
<rect width="20" height="20" fill="white"/>
</clipPath>
</defs>
</svg>
