<svg width="20" height="20" viewBox="0 0 20 20" fill="none" xmlns="http://www.w3.org/2000/svg">
<g clip-path="url(#clip0_395_6065)">
<path fill-rule="evenodd" clip-rule="evenodd" d="M7.0301 16.3418C7.75018 16.399 8.67426 16.3999 9.9999 16.3999C11.3255 16.3999 12.2496 16.399 12.9697 16.3418C13.6764 16.2856 14.0834 16.1809 14.3921 16.0287C15.1029 15.6781 15.6781 15.1029 16.0287 14.3921C16.1809 14.0834 16.2856 13.6764 16.3418 12.9697C16.399 12.2496 16.3999 11.3255 16.3999 9.9999C16.3999 8.67426 16.399 7.75018 16.3418 7.0301C16.2856 6.32338 16.1809 5.91638 16.0287 5.60766C15.6781 4.8969 15.1029 4.32166 14.3921 3.97116C14.0834 3.81891 13.6764 3.71416 12.9697 3.65801C12.2496 3.60079 11.3255 3.5999 9.9999 3.5999C8.67426 3.5999 7.75018 3.60079 7.0301 3.65801C6.32338 3.71416 5.91638 3.81891 5.60766 3.97116C4.8969 4.32166 4.32166 4.8969 3.97116 5.60766C3.81891 5.91638 3.71416 6.32338 3.65801 7.0301C3.60079 7.75018 3.5999 8.67426 3.5999 9.9999C3.5999 11.3255 3.60079 12.2496 3.65801 12.9697C3.71416 13.6764 3.81891 14.0834 3.97116 14.3921C4.32166 15.1029 4.8969 15.6781 5.60766 16.0287C5.91638 16.1809 6.32338 16.2856 7.0301 16.3418ZM2.89491 5.0769C2.3999 6.0807 2.3999 7.3871 2.3999 9.9999C2.3999 12.6127 2.3999 13.9191 2.89491 14.9229C3.36225 15.8706 4.12922 16.6375 5.0769 17.1049C6.0807 17.5999 7.3871 17.5999 9.9999 17.5999C12.6127 17.5999 13.9191 17.5999 14.9229 17.1049C15.8706 16.6375 16.6375 15.8706 17.1049 14.9229C17.5999 13.9191 17.5999 12.6127 17.5999 9.9999C17.5999 7.3871 17.5999 6.0807 17.1049 5.0769C16.6375 4.12922 15.8706 3.36225 14.9229 2.89491C13.9191 2.3999 12.6127 2.3999 9.9999 2.3999C7.3871 2.3999 6.0807 2.3999 5.0769 2.89491C4.12922 3.36225 3.36225 4.12922 2.89491 5.0769Z" fill="#EADFD6"/>
<path fill-rule="evenodd" clip-rule="evenodd" d="M9.99992 7.33428C8.52772 7.33428 7.33428 8.52772 7.33428 9.99992C7.33428 11.4721 8.52772 12.6656 9.99992 12.6656C11.4721 12.6656 12.6656 11.4721 12.6656 9.99992C12.6656 8.52772 11.4721 7.33428 9.99992 7.33428ZM6.13428 9.99992C6.13428 7.865 7.865 6.13428 9.99992 6.13428C12.1348 6.13428 13.8656 7.865 13.8656 9.99992C13.8656 12.1348 12.1348 13.8656 9.99992 13.8656C7.865 13.8656 6.13428 12.1348 6.13428 9.99992Z" fill="#EADFD6"/>
<path d="M14.0376 6.85303C14.5295 6.85303 14.9282 6.45428 14.9282 5.9624C14.9282 5.47052 14.5295 5.07178 14.0376 5.07178C13.5457 5.07178 13.147 5.47052 13.147 5.9624C13.147 6.45428 13.5457 6.85303 14.0376 6.85303Z" fill="#EADFD6"/>
</g>
<defs>
<clipPath id="clip0_395_6065">
<rect width="20" height="20" fill="white"/>
</clipPath>
</defs>
</svg>
