<svg width="28" height="28" viewBox="0 0 28 28" fill="none" xmlns="http://www.w3.org/2000/svg">
<path fill-rule="evenodd" clip-rule="evenodd" d="M16.25 8.25C15.8358 8.25 15.5 7.91421 15.5 7.5C15.5 7.08579 15.8358 6.75 16.25 6.75H20.25C20.6642 6.75 21 7.08579 21 7.5V11.5C21 11.9142 20.6642 12.25 20.25 12.25C19.8358 12.25 19.5 11.9142 19.5 11.5V9.31066L14.2803 14.5303C13.9874 14.8232 13.5126 14.8232 13.2197 14.5303C12.9268 14.2374 12.9268 13.7626 13.2197 13.4697L18.4393 8.25H16.25Z" fill="#423733"/>
<path fill-rule="evenodd" clip-rule="evenodd" d="M6.5 10.5C6.5 8.42893 8.17893 6.75 10.25 6.75H12.75C13.1642 6.75 13.5 7.08579 13.5 7.5C13.5 7.91421 13.1642 8.25 12.75 8.25H10.25C9.00736 8.25 8 9.25736 8 10.5V17.5C8 18.7426 9.00736 19.75 10.25 19.75H17.25C18.4926 19.75 19.5 18.7426 19.5 17.5V15C19.5 14.5858 19.8358 14.25 20.25 14.25C20.6642 14.25 21 14.5858 21 15V17.5C21 19.5711 19.3211 21.25 17.25 21.25H10.25C8.17893 21.25 6.5 19.5711 6.5 17.5V10.5Z" fill="#423733"/>
</svg>
