<svg width="21" height="20" viewBox="0 0 21 20" fill="none" xmlns="http://www.w3.org/2000/svg">
<g clip-path="url(#clip0_116_311)">
<path opacity="0.5" fill-rule="evenodd" clip-rule="evenodd" d="M6.93335 7.90909V5.63636C6.93335 3.62806 8.60482 2 10.6667 2C12.7285 2 14.4 3.62806 14.4 5.63636V7.90909H15.3334C16.622 7.90909 17.6667 8.92663 17.6667 10.1818V14.7273C17.6667 15.9825 16.622 17 15.3334 17H6.00002C4.71136 17 3.66669 15.9825 3.66669 14.7273V10.1818C3.66669 8.92663 4.71136 7.90909 6.00002 7.90909H6.93335ZM12.5334 5.63636V7.90909H8.80002V5.63636C8.80002 4.63221 9.63576 3.81818 10.6667 3.81818C11.6976 3.81818 12.5334 4.63221 12.5334 5.63636ZM10.6667 14.7273C11.9554 14.7273 13 13.7097 13 12.4545C13 11.1994 11.9554 10.1818 10.6667 10.1818C9.37802 10.1818 8.33335 11.1994 8.33335 12.4545C8.33335 13.7097 9.37802 14.7273 10.6667 14.7273Z" fill="#EADFD6"/>
</g>
<defs>
<clipPath id="clip0_116_311">
<rect width="21" height="20" fill="white"/>
</clipPath>
</defs>
</svg>
