<svg width="20" height="16" viewBox="0 0 20 16" fill="none" xmlns="http://www.w3.org/2000/svg">
<g clip-path="url(#clip0_116_323)">
<g clip-path="url(#clip1_116_323)">
<path d="M17 0H3C1.34315 0 0 1.34315 0 3V13C0 14.6569 1.34315 16 3 16H17C18.6569 16 20 14.6569 20 13V3C20 1.34315 18.6569 0 17 0Z" fill="white" fill-opacity="0.2"/>
<path fill-rule="evenodd" clip-rule="evenodd" d="M9.99991 4.43848C9.93477 4.48626 9.87099 4.53578 9.80867 4.58698C8.83181 5.38942 8.20917 6.6038 8.20917 7.96294C8.20917 9.4088 8.91381 10.6909 9.99991 11.4874C11.086 10.6909 11.7906 9.4088 11.7906 7.96294C11.7906 6.51708 11.086 5.23504 9.99991 4.43848Z" fill="white" fill-opacity="0.6"/>
<path fill-rule="evenodd" clip-rule="evenodd" d="M9.99989 4.43789C8.91375 5.23445 8.20908 6.51651 8.20908 7.9624C8.20908 9.40829 8.91375 10.6904 9.99989 11.4869C9.27096 12.0215 8.37022 12.3374 7.39535 12.3374C4.96786 12.3374 3 10.3786 3 7.9624C3 5.54616 4.96786 3.5874 7.39535 3.5874C8.37022 3.5874 9.27096 3.90331 9.99989 4.43789Z" fill="white" fill-opacity="0.8"/>
<path fill-rule="evenodd" clip-rule="evenodd" d="M10.0001 11.4868C11.0861 10.6903 11.7908 9.40825 11.7908 7.9624C11.7908 6.51656 11.0861 5.23453 10.0001 4.43796C10.729 3.90334 11.6298 3.5874 12.6047 3.5874C15.0322 3.5874 17 5.54616 17 7.9624C17 10.3786 15.0322 12.3374 12.6047 12.3374C11.6298 12.3374 10.729 12.0215 10.0001 11.4868Z" fill="white" fill-opacity="0.3"/>
</g>
</g>
<defs>
<clipPath id="clip0_116_323">
<rect width="20" height="16" fill="white"/>
</clipPath>
<clipPath id="clip1_116_323">
<rect width="20" height="16" fill="white"/>
</clipPath>
</defs>
</svg>
