<svg width="33" height="32" viewBox="0 0 33 32" fill="none" xmlns="http://www.w3.org/2000/svg">
<path fill-rule="evenodd" clip-rule="evenodd" d="M27.3332 2.66699C28.7139 2.66699 29.8332 3.78628 29.8332 5.16699V22.5003C29.8332 22.504 29.8332 22.5077 29.8331 22.5114V28.9454C29.8331 30.2804 28.2201 30.9503 27.2744 30.008L21.2447 24.0003H5.6665C4.28579 24.0003 3.1665 22.881 3.1665 21.5003V5.16699C3.1665 3.78628 4.28579 2.66699 5.6665 2.66699H27.3332Z" fill="#E3AC97"/>
<path fill-rule="evenodd" clip-rule="evenodd" d="M22.9998 9.66699C23.5521 9.66699 23.9998 10.1147 23.9998 10.6669C23.9998 11.2192 23.5521 11.6669 22.9998 11.6669H9.6665C9.11421 11.6669 8.6665 11.2192 8.6665 10.6669C8.6665 10.1147 9.11421 9.66699 9.6665 9.66699H22.9998ZM16.9998 16.3336C17.5521 16.3336 17.9998 16.7813 17.9998 17.3336C17.9998 17.8859 17.5521 18.3336 16.9998 18.3336H10.3331C9.78088 18.3336 9.33316 17.8859 9.33316 17.3336C9.33316 16.7813 9.78088 16.3336 10.3331 16.3336H16.9998Z" fill="#423733"/>
</svg>
