<svg width="33" height="32" viewBox="0 0 33 32" fill="none" xmlns="http://www.w3.org/2000/svg">
<path fill-rule="evenodd" clip-rule="evenodd" d="M27.3334 2.66699C28.7141 2.66699 29.8334 3.78628 29.8334 5.16699V22.5003C29.8334 22.504 29.8334 22.5077 29.8333 22.5114V28.9454C29.8333 30.2804 28.2203 30.9503 27.2746 30.008L21.2449 24.0003H5.66672C4.28601 24.0003 3.16672 22.881 3.16672 21.5003V5.16699C3.16672 3.78628 4.28601 2.66699 5.66672 2.66699H27.3334Z" fill="#A39187"/>
<path fill-rule="evenodd" clip-rule="evenodd" d="M23 9.66699C23.5523 9.66699 24 10.1147 24 10.6669C24 11.2192 23.5523 11.6669 23 11.6669H9.66667C9.11438 11.6669 8.66667 11.2192 8.66667 10.6669C8.66667 10.1147 9.11438 9.66699 9.66667 9.66699H23ZM17 16.3336C17.5523 16.3336 18 16.7813 18 17.3336C18 17.8859 17.5523 18.3336 17 18.3336H10.3333C9.78105 18.3336 9.33333 17.8859 9.33333 17.3336C9.33333 16.7813 9.78105 16.3336 10.3333 16.3336H17Z" fill="#EADFD6"/>
</svg>
