<svg width="55" height="19" viewBox="0 0 55 19" fill="none" xmlns="http://www.w3.org/2000/svg">
<path d="M44.6869 10.7312V19H38.6069V0H44.6869V7.752H44.8085C44.8491 7.144 44.9504 6.6576 45.1125 6.2928L48.0917 0H54.6581L50.0981 9.3328L54.8101 19H48.2437L45.1125 12.1904C44.9504 11.8256 44.8491 11.3392 44.8085 10.7312H44.6869Z" fill="#E5AE99"/>
<path d="M37.2467 19H25.0867V0H31.1667V14.136H37.2467V19Z" fill="#E5AE99"/>
<path d="M6.3536 19H0L1.1552 0H9.0896L11.4608 9.6672H11.6736L14.0448 0H21.9792L23.1344 19H16.7808L16.416 9.7888H16.2032L13.8928 19H9.2416L6.9008 9.7888H6.7184L6.3536 19Z" fill="#E5AE99"/>
</svg>
