<svg width="30" height="30" viewBox="0 0 30 30" fill="none" xmlns="http://www.w3.org/2000/svg">
<g clip-path="url(#clip0_24_2490)">
<rect width="30" height="30" rx="10" fill="url(#paint0_linear_24_2490)"/>
<path opacity="0.8" d="M12.1252 9.25C10.6002 9.25 9.13771 9.8558 8.05938 10.9341C6.98105 12.0125 6.37524 13.475 6.37524 15C6.37524 16.525 6.98105 17.9875 8.05938 19.0659C9.13771 20.1442 10.6002 20.75 12.1252 20.75C13.6502 20.75 15.1128 20.1442 16.1911 19.0659C17.2694 17.9875 17.8752 16.525 17.8752 15C17.8752 13.475 17.2694 12.0125 16.1911 10.9341C15.1128 9.8558 13.6502 9.25 12.1252 9.25ZM12.1252 16.7252C11.6677 16.7252 11.229 16.5435 10.9055 16.22C10.582 15.8965 10.4002 15.4577 10.4002 15.0002C10.4002 14.5427 10.582 14.1039 10.9055 13.7804C11.229 13.4569 11.6677 13.2752 12.1252 13.2752C12.5827 13.2752 13.0215 13.4569 13.345 13.7804C13.6685 14.1039 13.8502 14.5427 13.8502 15.0002C13.8502 15.4577 13.6685 15.8965 13.345 16.22C13.0215 16.5435 12.5827 16.7252 12.1252 16.7252Z" fill="white"/>
<path d="M18.588 13.5624C20.0488 13.9828 21.7736 13.5624 21.7736 13.5624C21.2732 15.7476 19.686 17.116 17.3976 17.2824C16.9539 18.3124 16.218 19.1899 15.281 19.8061C14.3439 20.4224 13.2468 20.7506 12.1252 20.75L13.85 15.2672C15.6232 9.632 16.5324 9.25 20.7376 9.25H23.6248C23.142 11.3776 21.4772 13.0028 18.588 13.5624Z" fill="white"/>
</g>
<defs>
<linearGradient id="paint0_linear_24_2490" x1="3.16101e-07" y1="30" x2="30" y2="3.16101e-07" gradientUnits="userSpaceOnUse">
<stop stop-color="#00A3FF"/>
<stop offset="1" stop-color="#0040FF"/>
</linearGradient>
<clipPath id="clip0_24_2490">
<rect width="30" height="30" rx="10" fill="white"/>
</clipPath>
</defs>
</svg>
