<svg width="110" height="91" viewBox="0 0 110 91" fill="none" xmlns="http://www.w3.org/2000/svg">
<g clip-path="url(#clip0_484_3610)">
<path opacity="0.8" d="M46.9592 19.1599C39.9481 19.1599 32.6778 21.891 26.7479 26.7524C20.818 31.6137 16.7142 38.2072 15.3391 45.0822C13.9641 51.9572 15.4306 58.5506 19.416 63.412C23.4014 68.2734 29.5792 71.0044 36.5903 71.0044C43.6015 71.0044 50.8717 68.2734 56.8016 63.412C62.7315 58.5506 66.8354 51.9572 68.2104 45.0822C69.5854 38.2072 68.1189 31.6137 64.1335 26.7524C60.1482 21.891 53.9704 19.1599 46.9592 19.1599ZM40.2193 52.8598C38.1159 52.8598 36.2626 52.0404 35.067 50.582C33.8714 49.1236 33.4314 47.1456 33.8439 45.0831C34.2564 43.0206 35.4876 41.0425 37.2665 39.5841C39.0455 38.1257 41.2266 37.3064 43.3299 37.3064C45.4333 37.3064 47.2866 38.1257 48.4822 39.5841C49.6778 41.0425 50.1178 43.0206 49.7053 45.0831C49.2928 47.1456 48.0616 49.1236 46.2826 50.582C44.5037 52.0404 42.3226 52.8598 40.2193 52.8598Z" fill="white"/>
<path d="M72.7836 38.6012C79.1206 40.4964 87.4294 38.6012 87.4294 38.6012C83.1586 48.4525 74.6276 54.6216 63.9566 55.3717C60.9879 60.0154 56.8135 63.9709 51.9498 66.7493C47.086 69.5277 41.7461 71.007 36.5902 71.0044L49.4635 46.2868C62.6968 20.8821 67.2213 19.1599 86.5547 19.1599H99.8286C95.6905 28.7516 86.5713 36.0784 72.7836 38.6012Z" fill="white"/>
</g>
<defs>
<clipPath id="clip0_484_3610">
<rect width="91.95" height="91.95" fill="white" transform="matrix(1 0 -0.196116 0.980581 18.0329 0)"/>
</clipPath>
</defs>
</svg>
