<svg width="30" height="30" viewBox="0 0 30 30" fill="none" xmlns="http://www.w3.org/2000/svg">
<g clip-path="url(#clip0_395_5900)">
<g clip-path="url(#clip1_395_5900)">
<g clip-path="url(#clip2_395_5900)">
<path d="M30 15C30 6.71573 23.2843 0 15 0C6.71573 0 0 6.71573 0 15C0 23.2843 6.71573 30 15 30C23.2843 30 30 23.2843 30 15Z" fill="#EDEDED"/>
<path d="M12.1564 22.8826L12.4521 21.0329L11.7935 21.0179H8.64844L10.8341 7.36895C10.8408 7.32773 10.8629 7.28933 10.8951 7.26203C10.9273 7.23479 10.9686 7.21973 11.0115 7.21973H16.3145C18.075 7.21973 19.2899 7.58057 19.9242 8.29271C20.2216 8.62679 20.411 8.97587 20.5026 9.36011C20.5987 9.76319 20.6004 10.2449 20.5065 10.8323L20.4998 10.8752V11.2515L20.7971 11.4175C21.0476 11.5483 21.2466 11.6981 21.3992 11.8696C21.6536 12.1553 21.8181 12.5183 21.8877 12.9487C21.9594 13.3913 21.9357 13.9181 21.8181 14.5144C21.6824 15.2004 21.4631 15.7979 21.1668 16.2867C20.8943 16.7372 20.5472 17.1108 20.1351 17.4003C19.7416 17.6754 19.2741 17.8842 18.7455 18.0178C18.2333 18.1493 17.6493 18.2155 17.0087 18.2155H16.596C16.3009 18.2155 16.0143 18.3202 15.7893 18.5078C15.5637 18.6993 15.4145 18.9611 15.3687 19.2473L15.3376 19.4138L14.8152 22.6738L14.7915 22.7936C14.7852 22.8314 14.7745 22.8503 14.7587 22.8632C14.7445 22.8749 14.7242 22.8826 14.7044 22.8826H12.1564Z" fill="#253B80"/>
<path d="M21.0664 10.9189C21.0505 11.0187 21.0324 11.1205 21.0119 11.2252C20.3103 14.7615 17.9102 15.9831 14.8447 15.9831H13.2839C12.909 15.9831 12.5931 16.2504 12.5347 16.6134L11.7356 21.589L11.5093 22.9994C11.4713 23.2377 11.6585 23.4526 11.9035 23.4526H14.6717C14.9996 23.4526 15.278 23.2188 15.3296 22.9014L15.3569 22.7633L15.8781 19.516L15.9116 19.3378C15.9626 19.0194 16.2416 18.7855 16.5695 18.7855H16.9835C19.6655 18.7855 21.7651 17.7164 22.3788 14.6228C22.6351 13.3305 22.5024 12.2514 21.8241 11.4925C21.6188 11.2636 21.3641 11.0737 21.0664 10.9189Z" fill="#2775CA"/>
<path d="M20.3544 10.631C20.2467 10.6004 20.1355 10.5725 20.0215 10.5475C19.9069 10.523 19.7895 10.5013 19.6686 10.4824C19.2455 10.4155 18.782 10.3838 18.2854 10.3838H14.0937C13.9905 10.3838 13.8925 10.4066 13.8047 10.4479C13.6114 10.5386 13.4678 10.7173 13.433 10.9361L12.5412 16.4519L12.5156 16.6127C12.5743 16.2497 12.8919 15.9824 13.2687 15.9824H14.8378C17.9194 15.9824 20.3322 14.7603 21.0375 11.2246C21.0586 11.1199 21.0762 11.018 21.0922 10.9183C20.9138 10.8259 20.7205 10.7468 20.5124 10.6795C20.4611 10.6628 20.4081 10.6466 20.3544 10.631Z" fill="#222D65"/>
<path d="M13.4947 10.9362C13.5292 10.7174 13.6716 10.5387 13.8633 10.4485C13.951 10.4073 14.0477 10.3845 14.15 10.3845H18.3073C18.7997 10.3845 19.2595 10.4162 19.679 10.483C19.7989 10.502 19.9154 10.5237 20.0291 10.5482C20.1422 10.5732 20.2524 10.6011 20.3593 10.6317C20.4124 10.6473 20.465 10.6634 20.5165 10.6796C20.7229 10.7469 20.9146 10.8266 21.0916 10.9184C21.2996 9.61161 21.0899 8.72187 20.3723 7.91613C19.5812 7.02915 18.1534 6.64941 16.3264 6.64941H11.0225C10.6493 6.64941 10.3309 6.91671 10.2732 7.28031L8.064 21.0695C8.02044 21.3424 8.23416 21.5885 8.51352 21.5885H11.7881L12.6103 16.452L13.4947 10.9362Z" fill="#253B80"/>
</g>
</g>
</g>
<defs>
<clipPath id="clip0_395_5900">
<rect width="30" height="30" fill="white"/>
</clipPath>
<clipPath id="clip1_395_5900">
<rect width="30" height="30" fill="white"/>
</clipPath>
<clipPath id="clip2_395_5900">
<rect width="30" height="30" fill="white"/>
</clipPath>
</defs>
</svg>
