<svg width="20" height="20" viewBox="0 0 20 20" fill="none" xmlns="http://www.w3.org/2000/svg">
<path d="M11.3831 5.97897C11.1878 5.78369 10.8712 5.78371 10.6759 5.97901L4.29274 12.3638C4.10522 12.5513 3.99987 12.8057 3.99988 13.071L3.99994 15.5039C3.99995 15.7801 4.22379 16.004 4.49991 16.0039L6.93187 16.0038C7.19701 16.0037 7.4513 15.8984 7.63879 15.7108L14.0226 9.32549C14.2178 9.13022 14.2178 8.81367 14.0226 8.61843L11.3831 5.97897Z" fill="#A39187"/>
<path d="M15.083 7.55777C15.2783 7.75305 15.5949 7.75303 15.7901 7.55773L16.6779 6.66975C17.0684 6.27918 17.0684 5.64591 16.6779 5.25533L14.7458 3.32271C14.3554 2.93214 13.7223 2.93214 13.3318 3.3227L12.4435 4.21125C12.2483 4.40652 12.2483 4.72307 12.4435 4.91831L15.083 7.55777Z" fill="#A39187"/>
</svg>
