<svg width="16" height="16" viewBox="0 0 16 16" fill="none" xmlns="http://www.w3.org/2000/svg">
<g clip-path="url(#clip0_376_1072)">
<path d="M7.59236 0.235294C7.77349 -0.0784314 8.22631 -0.0784314 8.40744 0.235294L10.0376 3.05882C10.2187 3.37255 9.99232 3.76471 9.63007 3.76471H6.36973C6.00748 3.76471 5.78106 3.37255 5.96219 3.05882L7.59236 0.235294Z" fill="#E5AE99"/>
<path d="M0.235294 8.40756C-0.0784312 8.22643 -0.0784315 7.77361 0.235294 7.59248L3.05882 5.96231C3.37255 5.78118 3.76471 6.00759 3.76471 6.36985V9.63019C3.76471 9.99244 3.37255 10.2188 3.05882 10.0377L0.235294 8.40756Z" fill="#E5AE99"/>
<path d="M15.7648 7.59248C16.0785 7.77361 16.0785 8.22643 15.7648 8.40756L12.9413 10.0377C12.6275 10.2188 12.2354 9.99244 12.2354 9.63019V6.36985C12.2354 6.0076 12.6275 5.78118 12.9413 5.96231L15.7648 7.59248Z" fill="#E5AE99"/>
<path d="M7.59236 15.7648C7.77349 16.0785 8.22631 16.0785 8.40744 15.7648L10.0376 12.9413C10.2187 12.6276 9.99232 12.2354 9.63007 12.2354H6.36973C6.00748 12.2354 5.78106 12.6276 5.96219 12.9413L7.59236 15.7648Z" fill="#E5AE99"/>
</g>
<defs>
<clipPath id="clip0_376_1072">
<rect width="16" height="16" fill="white"/>
</clipPath>
</defs>
</svg>
