<svg width="16" height="16" viewBox="0 0 16 16" fill="none" xmlns="http://www.w3.org/2000/svg">
<g clip-path="url(#clip0_395_5645)">
<path fill-rule="evenodd" clip-rule="evenodd" d="M6.5 0C2.91015 0 0 2.91015 0 6.5C0 10.0899 2.91015 13 6.5 13C7.9341 13 9.25973 12.5356 10.3347 11.7489L14.2929 15.7071C14.6834 16.0976 15.3166 16.0976 15.7071 15.7071C16.0976 15.3166 16.0976 14.6834 15.7071 14.2929L11.7489 10.3347C12.5356 9.25973 13 7.9341 13 6.5C13 2.91015 10.0899 0 6.5 0ZM2 6.5C2 4.01472 4.01472 2 6.5 2C8.98528 2 11 4.01472 11 6.5C11 8.98528 8.98528 11 6.5 11C4.01472 11 2 8.98528 2 6.5Z" fill="#EADFD6"/>
</g>
<defs>
<clipPath id="clip0_395_5645">
<rect width="16" height="16" fill="white"/>
</clipPath>
</defs>
</svg>
