<svg width="16" height="16" viewBox="0 0 16 16" fill="none" xmlns="http://www.w3.org/2000/svg">
<path fill-rule="evenodd" clip-rule="evenodd" d="M4.39407 14.6996L13.7501 9.29962C14.7501 8.72262 14.7501 7.27962 13.7501 6.70162L4.39407 1.29862C4.16597 1.16692 3.90721 1.09761 3.64383 1.09766C3.38044 1.0977 3.12171 1.16709 2.89365 1.29886C2.66559 1.43063 2.47625 1.62012 2.34467 1.84828C2.21308 2.07644 2.1439 2.33523 2.14407 2.59862V6.03662L6.20307 7.12462C6.69707 7.25662 6.69707 7.95762 6.20307 8.09062L2.14307 9.17762V13.4016C2.14307 13.6649 2.21239 13.9236 2.34404 14.1516C2.4757 14.3796 2.66506 14.569 2.89308 14.7006C3.12111 14.8323 3.37977 14.9016 3.64308 14.9016C3.90638 14.9016 4.16504 14.8323 4.39307 14.7006" fill="#423733"/>
</svg>
