<svg width="16" height="16" viewBox="0 0 16 16" fill="none" xmlns="http://www.w3.org/2000/svg">
<path fill-rule="evenodd" clip-rule="evenodd" d="M4.39401 14.6996L13.75 9.29962C14.75 8.72262 14.75 7.27962 13.75 6.70162L4.39401 1.29862C4.16591 1.16692 3.90715 1.09761 3.64376 1.09766C3.38038 1.0977 3.12165 1.16709 2.89359 1.29886C2.66553 1.43063 2.47619 1.62012 2.34461 1.84828C2.21302 2.07644 2.14384 2.33523 2.14401 2.59862V6.03662L6.20301 7.12462C6.69701 7.25662 6.69701 7.95762 6.20301 8.09062L2.14301 9.17762V13.4016C2.14301 13.6649 2.21233 13.9236 2.34398 14.1516C2.47564 14.3796 2.66499 14.569 2.89302 14.7006C3.12105 14.8323 3.37971 14.9016 3.64301 14.9016C3.90632 14.9016 4.16498 14.8323 4.39301 14.7006" fill="#A39187"/>
</svg>
