<svg width="80" height="80" viewBox="0 0 80 80" fill="none" xmlns="http://www.w3.org/2000/svg">
<g clip-path="url(#clip0_474_518)">
<path d="M22 42.5C33.3218 42.5 42.5 33.3218 42.5 22C42.5 10.6782 33.3218 1.5 22 1.5C10.6782 1.5 1.5 10.6782 1.5 22C1.5 33.3218 10.6782 42.5 22 42.5Z" fill="#423733" stroke="#47413E" stroke-width="3"/>
<path d="M22 78.5C33.3218 78.5 42.5 69.3218 42.5 58C42.5 46.6782 33.3218 37.5 22 37.5C10.6782 37.5 1.5 46.6782 1.5 58C1.5 69.3218 10.6782 78.5 22 78.5Z" fill="#423733" stroke="#47413E" stroke-width="3"/>
<path d="M58 42.5C69.3218 42.5 78.5 33.3218 78.5 22C78.5 10.6782 69.3218 1.5 58 1.5C46.6782 1.5 37.5 10.6782 37.5 22C37.5 33.3218 46.6782 42.5 58 42.5Z" fill="#423733" stroke="#47413E" stroke-width="3"/>
<path d="M58 78.5C69.3218 78.5 78.5 69.3218 78.5 58C78.5 46.6782 69.3218 37.5 58 37.5C46.6782 37.5 37.5 46.6782 37.5 58C37.5 69.3218 46.6782 78.5 58 78.5Z" fill="#23201F" stroke="#47413E" stroke-width="3"/>
<mask id="mask0_474_518" style="mask-type:luminance" maskUnits="userSpaceOnUse" x="9" y="46" width="26" height="26">
<path d="M35 46H9V72H35V46Z" fill="white"/>
</mask>
<g mask="url(#mask0_474_518)">
<path d="M29.7966 54.792C29.8082 54.9621 29.8082 55.1323 29.8082 55.304C29.8082 60.5364 25.9018 66.5709 18.7589 66.5709V66.5678C16.6489 66.5709 14.5827 65.9546 12.8064 64.7925C13.1132 64.8302 13.4216 64.849 13.7307 64.8498C15.4793 64.8513 17.1779 64.2531 18.5536 63.1514C16.8919 63.1192 15.4347 62.0144 14.9257 60.4015C15.5078 60.516 16.1076 60.4925 16.6789 60.3333C14.8672 59.9601 13.5638 58.337 13.5638 56.452C13.5638 56.4347 13.5638 56.4182 13.5638 56.4018C14.1036 56.7084 14.708 56.8785 15.3263 56.8973C13.62 55.7345 13.094 53.4198 14.1244 51.6101C16.096 54.0839 19.005 55.5879 22.1278 55.747C21.8148 54.3717 22.2423 52.9305 23.2512 51.9637C24.8153 50.4645 27.2752 50.5413 28.7454 52.1354C29.6151 51.9606 30.4487 51.6352 31.2115 51.1741C30.9216 52.0907 30.3149 52.8694 29.5044 53.3641C30.2741 53.2716 31.0262 53.0615 31.7344 52.7408C31.213 53.5374 30.5564 54.2314 29.7966 54.792Z" fill="#E5AE99"/>
</g>
<path fill-rule="evenodd" clip-rule="evenodd" d="M66.3918 14.4761C67.3756 14.7401 68.1538 15.5173 68.4181 16.4999C68.9027 18.289 68.9174 21.9993 68.9174 21.9993C68.9174 21.9993 68.9174 25.7242 68.4328 27.4987C68.1685 28.4812 67.3903 29.2585 66.4064 29.5224C64.6297 30.0064 57.9986 30.0064 57.9986 30.0064C57.9986 30.0064 51.3675 30.0064 49.5908 29.5224C48.607 29.2585 47.8287 28.4812 47.5644 27.4987C47.0798 25.7095 47.0798 21.9993 47.0798 21.9993C47.0798 21.9993 47.0798 18.289 47.5497 16.5146C47.814 15.532 48.5923 14.7548 49.5761 14.4908C51.3528 14.0068 57.9839 13.9922 57.9839 13.9922C57.9839 13.9922 64.615 13.9922 66.3918 14.4761ZM61.6394 21.998L55.7071 25.4297V18.5664L61.6394 21.998Z" fill="#E5AE99"/>
<path d="M16.8 12.6396L13.0857 16.3539V29.7253H17.5429V33.4397L21.2571 29.7253H24.2286L30.9143 23.0396V12.6396H16.8ZM29.4286 22.2967L26.4571 25.2681H23.4857L20.8857 27.8681V25.2681H17.5429V14.1253H29.4286V22.2967Z" fill="#E5AE99"/>
<path d="M27.1998 16.7256H25.7141V21.1828H27.1998V16.7256Z" fill="#E5AE99"/>
<path d="M23.1146 16.7256H21.6289V21.1828H23.1146V16.7256Z" fill="#E5AE99"/>
<path fill-rule="evenodd" clip-rule="evenodd" d="M58.0001 51.3398C58.696 51.3398 59.2601 51.9039 59.2601 52.5998V56.7398H63.4001C64.096 56.7398 64.6601 57.3039 64.6601 57.9998C64.6601 58.6956 64.096 59.2598 63.4001 59.2598H59.2601V63.3998C59.2601 64.0956 58.696 64.6598 58.0001 64.6598C57.3042 64.6598 56.7401 64.0956 56.7401 63.3998V59.2598H52.6001C51.9042 59.2598 51.3401 58.6956 51.3401 57.9998C51.3401 57.3039 51.9042 56.7398 52.6001 56.7398H56.7401V52.5998C56.7401 51.9039 57.3042 51.3398 58.0001 51.3398Z" fill="#EADFD6"/>
</g>
<defs>
<clipPath id="clip0_474_518">
<rect width="80" height="80" fill="white"/>
</clipPath>
</defs>
</svg>
