<svg width="20" height="20" viewBox="0 0 20 20" fill="none" xmlns="http://www.w3.org/2000/svg">
<g clip-path="url(#clip0_395_6057)">
<path d="M8.48995 8.0606V7.4614C8.28131 7.4326 8.07097 7.41777 7.86035 7.417C5.29075 7.4134 3.19995 9.5058 3.19995 12.081C3.19995 13.6602 3.98715 15.057 5.19155 15.903C4.38578 15.0411 3.93804 13.9049 3.93915 12.725C3.93915 10.1874 5.97155 8.1186 8.48995 8.0606Z" fill="#EADFD6"/>
<path d="M8.60322 14.856C9.74962 14.856 10.6872 13.942 10.728 12.8048L10.732 2.644H12.5864C12.5479 2.4315 12.5283 2.21598 12.528 2H9.99602L9.99202 12.1608C9.95122 13.298 9.01362 14.2124 7.86762 14.2124C7.51162 14.2124 7.17602 14.1232 6.87842 13.9656C7.07392 14.241 7.33252 14.4656 7.63259 14.6206C7.93267 14.7755 8.26549 14.856 8.60322 14.856ZM16.0532 6.092V5.5268C15.371 5.52815 14.7034 5.32927 14.1332 4.9548C14.6329 5.53207 15.3068 5.9312 16.0532 6.092Z" fill="#EADFD6"/>
<path d="M14.1335 4.95409C13.5739 4.31405 13.2661 3.49231 13.2675 2.64209H12.5903C12.6767 3.11218 12.8581 3.5597 13.1235 3.95725C13.3888 4.35479 13.7325 4.69399 14.1335 4.95409ZM7.86433 9.94809C7.29989 9.94904 6.75888 10.1738 6.35995 10.5731C5.96102 10.9724 5.73675 11.5137 5.73633 12.0781C5.73681 12.4669 5.84352 12.8482 6.04492 13.1808C6.24633 13.5134 6.53479 13.7847 6.87913 13.9653C6.61618 13.6041 6.47471 13.1688 6.47513 12.7221C6.47545 12.1575 6.69973 11.6161 7.09875 11.2167C7.49778 10.8173 8.03896 10.5925 8.60353 10.5917C8.82233 10.5917 9.03473 10.6293 9.23313 10.6909V8.10209C9.02448 8.07329 8.81415 8.05846 8.60353 8.05769C8.56593 8.05769 8.53153 8.06089 8.49393 8.06089V10.0473C8.29018 9.98302 8.07797 9.94958 7.86433 9.94809Z" fill="#EADFD6"/>
<path d="M16.0521 6.0922V8.061C14.7381 8.061 13.5201 7.6398 12.528 6.9274V12.0814C12.528 14.6534 10.4373 16.7494 7.86405 16.7494C6.87165 16.7494 5.94805 16.4342 5.19165 15.9034C5.62715 16.3731 6.15488 16.7478 6.74184 17.0042C7.32879 17.2606 7.96234 17.3931 8.60285 17.3934C11.1729 17.3934 13.2668 15.301 13.2668 12.7254V7.5714C14.2936 8.30968 15.5266 8.70626 16.7913 8.705V6.1706C16.5427 6.17092 16.2949 6.1449 16.0521 6.0922Z" fill="#EADFD6"/>
<path d="M12.5283 12.0809V6.92649C13.5551 7.66477 14.7881 8.06135 16.0527 8.06009V6.09089C15.3065 5.93012 14.6328 5.53114 14.1331 4.95409C13.7327 4.69305 13.3892 4.35362 13.1234 3.95628C12.8577 3.55893 12.6751 3.11189 12.5867 2.64209H10.7319L10.7287 12.8033C10.6875 13.9405 9.74994 14.8549 8.60354 14.8549C7.89194 14.8549 7.26554 14.5021 6.87554 13.9677C6.19794 13.6081 5.73274 12.8993 5.73274 12.0809C5.73306 11.5163 5.95734 10.9749 6.35636 10.5755C6.75539 10.1761 7.29657 9.95134 7.86114 9.95049C8.08034 9.95049 8.29234 9.98809 8.49074 10.0501V8.06369C5.97234 8.11849 3.93994 10.1869 3.93994 12.7241C3.93994 13.9501 4.41554 15.0665 5.19194 15.9025C5.9745 16.453 6.90797 16.7483 7.86474 16.7481C10.4343 16.7481 12.5287 14.6521 12.5287 12.0801L12.5283 12.0809Z" fill="#EADFD6"/>
</g>
<defs>
<clipPath id="clip0_395_6057">
<rect width="20" height="20" fill="white"/>
</clipPath>
</defs>
</svg>
