<svg width="20" height="20" viewBox="0 0 20 20" fill="none" xmlns="http://www.w3.org/2000/svg">
<g clip-path="url(#clip0_116_295)">
<path d="M8.49001 8.0606V7.4614C8.28137 7.4326 8.07103 7.41777 7.86041 7.417C5.29081 7.4134 3.20001 9.5058 3.20001 12.081C3.20001 13.6602 3.98721 15.057 5.19161 15.903C4.38584 15.0411 3.9381 13.9049 3.93921 12.725C3.93921 10.1874 5.97161 8.1186 8.49001 8.0606Z" fill="#EADFD6"/>
<path d="M8.60319 14.856C9.74959 14.856 10.6872 13.942 10.728 12.8048L10.732 2.644H12.5864C12.5478 2.4315 12.5283 2.21598 12.528 2H9.99599L9.99199 12.1608C9.95119 13.298 9.01359 14.2124 7.86759 14.2124C7.51159 14.2124 7.17599 14.1232 6.87839 13.9656C7.07389 14.241 7.33249 14.4656 7.63256 14.6206C7.93264 14.7755 8.26546 14.856 8.60319 14.856ZM16.0532 6.092V5.5268C15.371 5.52815 14.7034 5.32927 14.1332 4.9548C14.6329 5.53207 15.3068 5.9312 16.0532 6.092Z" fill="#EADFD6"/>
<path d="M14.1336 4.95409C13.5739 4.31405 13.2661 3.49231 13.2676 2.64209H12.5904C12.6768 3.11218 12.8582 3.5597 13.1235 3.95725C13.3889 4.35479 13.7326 4.69399 14.1336 4.95409ZM7.86439 9.94809C7.29995 9.94904 6.75894 10.1738 6.36001 10.5731C5.96108 10.9724 5.73681 11.5137 5.73639 12.0781C5.73687 12.4669 5.84358 12.8482 6.04499 13.1808C6.24639 13.5134 6.53485 13.7847 6.87919 13.9653C6.61624 13.6041 6.47478 13.1688 6.47519 12.7221C6.47551 12.1575 6.69979 11.6161 7.09881 11.2167C7.49784 10.8173 8.03902 10.5925 8.60359 10.5917C8.82239 10.5917 9.03479 10.6293 9.23319 10.6909V8.10209C9.02454 8.07329 8.81421 8.05846 8.60359 8.05769C8.56599 8.05769 8.53159 8.06089 8.49399 8.06089V10.0473C8.29024 9.98302 8.07803 9.94958 7.86439 9.94809Z" fill="#EADFD6"/>
<path d="M16.052 6.0922V8.061C14.738 8.061 13.52 7.6398 12.528 6.9274V12.0814C12.528 14.6534 10.4372 16.7494 7.86399 16.7494C6.87159 16.7494 5.94799 16.4342 5.19159 15.9034C5.62709 16.3731 6.15482 16.7478 6.74178 17.0042C7.32873 17.2606 7.96228 17.3931 8.60279 17.3934C11.1728 17.3934 13.2668 15.301 13.2668 12.7254V7.5714C14.2936 8.30968 15.5266 8.70626 16.7912 8.705V6.1706C16.5427 6.17092 16.2949 6.1449 16.052 6.0922Z" fill="#EADFD6"/>
<path d="M12.5284 12.0809V6.92649C13.5552 7.66477 14.7882 8.06135 16.0528 8.06009V6.09089C15.3066 5.93012 14.6329 5.53114 14.1332 4.95409C13.7327 4.69305 13.3893 4.35362 13.1235 3.95628C12.8577 3.55893 12.6752 3.11189 12.5868 2.64209H10.732L10.7288 12.8033C10.6876 13.9405 9.75 14.8549 8.6036 14.8549C7.892 14.8549 7.2656 14.5021 6.8756 13.9677C6.198 13.6081 5.7328 12.8993 5.7328 12.0809C5.73312 11.5163 5.9574 10.9749 6.35643 10.5755C6.75545 10.1761 7.29663 9.95134 7.8612 9.95049C8.0804 9.95049 8.2924 9.98809 8.4908 10.0501V8.06369C5.9724 8.11849 3.94 10.1869 3.94 12.7241C3.94 13.9501 4.4156 15.0665 5.192 15.9025C5.97456 16.453 6.90803 16.7483 7.8648 16.7481C10.4344 16.7481 12.5288 14.6521 12.5288 12.0801L12.5284 12.0809Z" fill="#EADFD6"/>
</g>
<defs>
<clipPath id="clip0_116_295">
<rect width="20" height="20" fill="white"/>
</clipPath>
</defs>
</svg>
