<svg width="20" height="16" viewBox="0 0 20 16" fill="none" xmlns="http://www.w3.org/2000/svg">
<g clip-path="url(#clip0_116_333)">
<g clip-path="url(#clip1_116_333)">
<path d="M17 0H3C1.34315 0 0 1.34315 0 3V13C0 14.6569 1.34315 16 3 16H17C18.6569 16 20 14.6569 20 13V3C20 1.34315 18.6569 0 17 0Z" fill="white" fill-opacity="0.2"/>
<path d="M5.07283 4.71709C4.58068 4.7221 4.43533 4.71709 4.38891 4.70612C4.37106 4.79093 4.03802 6.32419 4.03802 6.32419C3.96651 6.63413 3.91449 6.85507 3.73776 6.99773C3.63744 7.08067 3.52032 7.12068 3.38454 7.12068C3.16629 7.12068 3.03914 7.01231 3.01779 6.80677L3.01371 6.7362C3.01371 6.7362 3.0802 6.32104 3.0802 6.31871C3.0802 6.31871 3.42875 4.92263 3.49116 4.73808C3.49443 4.72758 3.49536 4.7221 3.49618 4.71709C2.81773 4.72304 2.69747 4.71709 2.68918 4.70612C2.68463 4.72117 2.66784 4.80772 2.66784 4.80772L2.31193 6.38123L2.28137 6.51468L2.22223 6.95119C2.22223 7.08067 2.24766 7.18636 2.29829 7.27571C2.46043 7.55906 2.92295 7.60152 3.1846 7.60152C3.52172 7.60152 3.83796 7.52989 4.05167 7.39913C4.42262 7.17993 4.51967 6.83734 4.60623 6.53288L4.64636 6.37668C4.64636 6.37668 5.00541 4.92671 5.06642 4.73808C5.06875 4.72758 5.06968 4.7221 5.07283 4.71709ZM6.29448 5.88679C6.20793 5.88679 6.04975 5.90779 5.90767 5.97743C5.85611 6.00391 5.80735 6.03447 5.75591 6.06492L5.80233 5.89729L5.7769 5.86906C5.47559 5.93007 5.40817 5.93824 5.12984 5.97743L5.10651 5.99295C5.0742 6.26089 5.0455 6.46235 4.9257 6.98903C4.88009 7.18314 4.83273 7.37911 4.78525 7.57275L4.79808 7.59737C5.0833 7.58232 5.16985 7.58232 5.41773 7.5864L5.4378 7.56459C5.46929 7.40326 5.47338 7.36546 5.54313 7.03872C5.57591 6.88381 5.64427 6.54342 5.67798 6.42222C5.73992 6.39353 5.80105 6.3653 5.85938 6.3653C5.99831 6.3653 5.98139 6.4865 5.97603 6.53479C5.97008 6.61586 5.91945 6.88066 5.86754 7.10801L5.8329 7.25476C5.80875 7.36313 5.78227 7.46847 5.75812 7.5759L5.76862 7.59737C6.04975 7.58232 6.13549 7.58232 6.37556 7.5864L6.40379 7.56459C6.44718 7.31262 6.4599 7.2452 6.53689 6.87833L6.57561 6.70977C6.65085 6.37988 6.68865 6.2126 6.63172 6.07635C6.57153 5.92366 6.42712 5.88679 6.29448 5.88679ZM7.65921 6.23219C7.50978 6.26088 7.41448 6.28001 7.31975 6.29238C7.22585 6.30743 7.13428 6.32107 6.98986 6.34114L6.97843 6.35152L6.96793 6.3598C6.95289 6.46735 6.94239 6.56033 6.92244 6.66963C6.90553 6.78266 6.87951 6.9111 6.83717 7.09564C6.80439 7.2369 6.78748 7.28613 6.76881 7.33582C6.75061 7.38552 6.73055 7.43381 6.69369 7.57274L6.70232 7.58557L6.70955 7.59735C6.84452 7.59094 6.93282 7.58639 7.02358 7.58557C7.11421 7.58231 7.20812 7.58557 7.35347 7.58639L7.36618 7.57601L7.37983 7.56457C7.40083 7.43929 7.40398 7.40558 7.41681 7.34445C7.42952 7.2789 7.45145 7.18814 7.50523 6.94574C7.53066 6.83189 7.55901 6.71839 7.58537 6.6022C7.61278 6.48649 7.64148 6.37252 7.66877 6.25867L7.66469 6.2449L7.65921 6.23219ZM7.66239 5.76649C7.52661 5.68635 7.28829 5.71178 7.1279 5.82248C6.96797 5.93097 6.94977 6.08495 7.08509 6.16614C7.21854 6.24406 7.45779 6.22085 7.61678 6.10921C7.77636 5.99839 7.79631 5.84581 7.66239 5.76649ZM8.48356 7.62247C8.75827 7.62247 9.03987 7.54676 9.25182 7.32209C9.4149 7.13988 9.48967 6.86879 9.51557 6.75715C9.59991 6.38713 9.53424 6.21437 9.45176 6.10915C9.32648 5.94876 9.10508 5.89732 8.87539 5.89732C8.73728 5.89732 8.40832 5.91096 8.15134 6.14788C7.96679 6.31878 7.88152 6.55068 7.83008 6.77302C7.77817 6.99955 7.71844 7.40736 8.09348 7.55913C8.2092 7.60882 8.37601 7.62247 8.48356 7.62247ZM8.4621 6.78993C8.52544 6.50973 8.60021 6.27457 8.79105 6.27457C8.9406 6.27457 8.95145 6.44954 8.88496 6.73067C8.87306 6.79308 8.81846 7.0251 8.74462 7.1239C8.69306 7.19681 8.63206 7.24102 8.56463 7.24102C8.54457 7.24102 8.42523 7.24102 8.42337 7.06383C8.42243 6.97634 8.44028 6.88698 8.4621 6.78993ZM10.2023 7.58644L10.2238 7.56462C10.2542 7.40329 10.2592 7.36538 10.3266 7.03876C10.3604 6.88385 10.4301 6.54346 10.4629 6.42226C10.525 6.39344 10.585 6.36522 10.6452 6.36522C10.7832 6.36522 10.7664 6.48642 10.7609 6.53471C10.7559 6.6159 10.7053 6.88058 10.6525 7.10793L10.6197 7.25468C10.5946 7.36317 10.5673 7.46838 10.5432 7.57594L10.5536 7.5974C10.8357 7.58235 10.9182 7.58235 11.1597 7.58644L11.1888 7.56462C11.2312 7.31254 11.2426 7.24511 11.3219 6.87836L11.3597 6.70969C11.4353 6.3798 11.4736 6.21264 11.4176 6.07639C11.3556 5.92369 11.2103 5.88683 11.0795 5.88683C10.9928 5.88683 10.8338 5.90771 10.6926 5.97747C10.6421 6.00395 10.5914 6.03439 10.5418 6.06496L10.585 5.89733L10.5618 5.86898C10.2606 5.93011 10.1918 5.93827 9.91382 5.97747L9.89247 5.99298C9.85876 6.26093 9.83135 6.46227 9.71155 6.98907C9.66594 7.18317 9.61857 7.37915 9.57121 7.57279L9.58393 7.5974C9.86961 7.58235 9.95488 7.58235 10.2023 7.58644ZM12.2747 7.59734C12.2924 7.51079 12.3987 6.99776 12.3987 6.99776C12.3987 6.99776 12.4884 6.62132 12.4938 6.60767C12.4938 6.60767 12.5221 6.56848 12.5503 6.55296H12.5918C12.9837 6.55296 13.4261 6.55296 13.7729 6.29785C14.0089 6.12287 14.1702 5.86449 14.2422 5.55047C14.2609 5.47348 14.2746 5.3819 14.2746 5.29033C14.2746 5.17007 14.2505 5.05108 14.1807 4.95811C14.0039 4.71069 13.6517 4.70614 13.2452 4.70428L13.0448 4.70614C12.5244 4.71256 12.3157 4.71069 12.23 4.7002C12.2228 4.73811 12.2091 4.80553 12.2091 4.80553L12.0227 5.67085C12.0227 5.67085 11.5766 7.50764 11.5556 7.59419C12.01 7.58871 12.1963 7.58871 12.2747 7.59734ZM12.6201 6.06267C12.6201 6.06267 12.8183 5.20051 12.8173 5.20378L12.8237 5.15957L12.8265 5.12586L12.9057 5.13402C12.9057 5.13402 13.3145 5.16913 13.3241 5.17007C13.4854 5.23247 13.5519 5.39334 13.5054 5.60331C13.4631 5.7952 13.3386 5.95653 13.1787 6.03445C13.047 6.10048 12.8857 6.10596 12.7195 6.10596H12.6119L12.6201 6.06267ZM13.854 6.8059C13.8017 7.02917 13.7415 7.43698 14.1146 7.58233C14.2336 7.63296 14.3403 7.648 14.4486 7.64252C14.5631 7.63634 14.6691 7.57895 14.7673 7.49636C14.7584 7.5303 14.7496 7.56425 14.7407 7.59831L14.7576 7.62012C15.026 7.60881 15.1093 7.60881 15.4001 7.61103L15.4265 7.59096C15.469 7.34133 15.509 7.09893 15.6193 6.62136C15.6731 6.3926 15.7268 6.16607 15.7819 5.93825L15.7733 5.91317C15.473 5.96881 15.3928 5.98071 15.104 6.02165L15.082 6.0395C15.0791 6.06272 15.0761 6.085 15.0733 6.10728C15.0284 6.03472 14.9633 5.97277 14.8628 5.93417C14.7344 5.88365 14.4328 5.94875 14.1734 6.18485C13.9912 6.35341 13.9037 6.58438 13.854 6.8059ZM14.4847 6.81955C14.5489 6.54437 14.6228 6.31153 14.8141 6.31153C14.9351 6.31153 14.9987 6.42317 14.9858 6.61354C14.9755 6.66102 14.9644 6.71106 14.9513 6.76764C14.9321 6.84941 14.9114 6.93048 14.8912 7.01167C14.8707 7.0672 14.8467 7.11957 14.8205 7.15445C14.7713 7.22421 14.6542 7.26749 14.5867 7.26749C14.5676 7.26749 14.4496 7.26749 14.4455 7.09344C14.4445 7.00677 14.4624 6.91753 14.4847 6.81955ZM17.7778 5.91094L17.7546 5.88446C17.4575 5.94465 17.4037 5.95422 17.1307 5.99108L17.1107 6.01114C17.1097 6.01441 17.1089 6.01943 17.1075 6.02398L17.1066 6.01943C16.9034 6.48825 16.9093 6.3871 16.7439 6.75619C16.743 6.7394 16.743 6.7289 16.742 6.71105L16.7006 5.91094L16.6746 5.88446C16.3634 5.94465 16.356 5.95422 16.0686 5.99108L16.0462 6.01114C16.0431 6.02071 16.0431 6.03121 16.0412 6.04264L16.0431 6.04672C16.079 6.23033 16.0704 6.18939 16.1064 6.47915C16.1232 6.62135 16.1456 6.76436 16.1624 6.90481C16.1907 7.13986 16.2066 7.25558 16.2413 7.61428C16.0471 7.9346 16.0012 8.0558 15.8143 8.33693L15.8156 8.33973L15.684 8.54784C15.669 8.56977 15.6553 8.58482 15.6362 8.59123C15.6152 8.60162 15.5879 8.60348 15.55 8.60348H15.4771L15.3687 8.96393L15.7405 8.97035C15.9587 8.96942 16.0959 8.86735 16.1697 8.73017L16.4035 8.32959H16.3998L16.4244 8.30136C16.5816 7.96283 17.7778 5.91094 17.7778 5.91094ZM13.854 10.6449H13.6963L14.28 8.71424H14.4737L14.5352 8.51535L14.5411 8.73652C14.5339 8.87324 14.6414 8.99444 14.924 8.97437H15.2507L15.3632 8.6026H15.2402C15.1695 8.6026 15.1367 8.58476 15.1408 8.5465L15.1349 8.32148H14.5298V8.32264C14.3342 8.32673 13.75 8.34143 13.6317 8.37292C13.4886 8.40978 13.3377 8.51826 13.3377 8.51826L13.397 8.31914H12.831L12.7131 8.71424L12.1215 10.6744H12.0068L11.8942 11.0435H13.0215L12.9837 11.1666H13.5392L13.5761 11.0435H13.7319L13.854 10.6449ZM13.3915 9.10653C13.3009 9.13162 13.1322 9.20767 13.1322 9.20767L13.2822 8.71424H13.7319L13.6234 9.07376C13.6234 9.07376 13.4845 9.08192 13.3915 9.10653ZM13.4001 9.81145C13.4001 9.81145 13.2589 9.82919 13.1659 9.85019C13.0743 9.87795 12.9026 9.96544 12.9026 9.96544L13.0575 9.45193H13.5096L13.4001 9.81145ZM13.1482 10.6495H12.6971L12.8279 10.2161H13.2775L13.1482 10.6495ZM14.2345 9.45193H14.8847L14.7913 9.75454H14.1324L14.0335 10.0854H14.61L14.1735 10.7C14.1429 10.7451 14.1155 10.7611 14.0851 10.7738C14.0545 10.7893 14.0144 10.8075 13.968 10.8075H13.808L13.6981 11.1699H14.1165C14.3339 11.1699 14.4623 11.0709 14.5572 10.9411L14.8565 10.5314L14.9208 10.9474C14.9344 11.0253 14.9904 11.0709 15.0283 11.0887C15.0702 11.1097 15.1135 11.1457 15.1746 11.1511C15.2402 11.1539 15.2875 11.1561 15.319 11.1561H15.5246L15.648 10.7506H15.5669C15.5204 10.7506 15.4402 10.7428 15.4266 10.7282C15.4129 10.7105 15.4129 10.6832 15.4056 10.6417L15.3404 10.2248H15.0733L15.1905 10.0854H15.848L15.9492 9.75454H15.3404L15.4352 9.45193H16.0421L16.1547 9.07878H14.3452L14.2345 9.45193ZM8.74278 10.7337L8.89454 10.2289H9.51828L9.63225 9.85336H9.00793L9.10323 9.54261H9.71332L9.82635 9.17902H8.29986L8.18915 9.54261H8.53596L8.44345 9.85336H8.09572L7.98047 10.2353H8.32715L8.12488 10.9032C8.09758 10.9917 8.13771 11.0254 8.16314 11.0664C8.18915 11.1064 8.21552 11.1329 8.27478 11.148C8.3359 11.1616 8.37778 11.1698 8.43471 11.1698H9.13788L9.26316 10.7538L8.95147 10.7966C8.89128 10.7966 8.72458 10.7894 8.74278 10.7337ZM8.81432 8.31686L8.65626 8.60254C8.62243 8.66495 8.59199 8.70369 8.56457 8.72153C8.54043 8.73658 8.4926 8.74288 8.42331 8.74288H8.34084L8.2306 9.10835H8.5045C8.6362 9.10835 8.73733 9.06004 8.78563 9.0359C8.83754 9.00813 8.85118 9.02401 8.89131 8.98528L8.98382 8.90514H9.8391L9.9526 8.52462H9.32654L9.43584 8.31686H8.81432ZM10.077 10.7411C10.0624 10.7201 10.0729 10.6831 10.0952 10.6061L10.329 9.83237H11.1606C11.2818 9.83062 11.3693 9.82922 11.4262 9.82513C11.4873 9.81872 11.5538 9.7969 11.6262 9.75771C11.701 9.71665 11.7393 9.67337 11.7716 9.62368C11.8076 9.5741 11.8655 9.46562 11.9152 9.29834L12.209 8.31917L11.346 8.32417C11.346 8.32417 11.0803 8.36338 10.9633 8.40666C10.8453 8.45495 10.6766 8.5898 10.6766 8.5898L10.7545 8.32137H10.2214L9.47508 10.7966C9.4486 10.8927 9.43087 10.9625 9.42679 11.0044C9.42539 11.0495 9.48371 11.0942 9.52151 11.1279C9.56619 11.1616 9.63221 11.1561 9.69555 11.1616C9.76216 11.1666 9.85688 11.1698 9.98765 11.1698H10.3973L10.5231 10.7452L10.1563 10.7798C10.1171 10.7798 10.0888 10.7588 10.077 10.7411ZM10.4798 9.30976H11.3533L11.2978 9.48381C11.2899 9.4879 11.2713 9.47517 11.1824 9.48567H10.426L10.4798 9.30976ZM10.6548 8.72605H11.5356L11.4723 8.93567C11.4723 8.93567 11.0571 8.93158 10.9906 8.94382C10.6981 8.99445 10.5272 9.15077 10.5272 9.15077L10.6548 8.72605ZM11.3173 10.0666C11.3101 10.0926 11.2986 10.1085 11.2827 10.1204C11.2649 10.1318 11.2362 10.1359 11.1934 10.1359H11.069L11.0763 9.92397H10.5586L10.5376 10.9602C10.5368 11.035 10.544 11.0782 10.5987 11.1129C10.6534 11.1562 10.822 11.1616 11.0489 11.1616H11.3733L11.4904 10.7738L11.208 10.7893L11.1141 10.7948C11.1013 10.7893 11.089 10.7843 11.0754 10.7706C11.0635 10.7588 11.0434 10.7661 11.0467 10.6913L11.0489 10.4257L11.3451 10.4134C11.505 10.4134 11.5734 10.3614 11.6317 10.3118C11.6873 10.2644 11.7055 10.2098 11.7265 10.1359L11.7762 9.90075H11.3692L11.3173 10.0666Z" fill="#EADFD6"/>
</g>
</g>
<defs>
<clipPath id="clip0_116_333">
<rect width="20" height="16" fill="white"/>
</clipPath>
<clipPath id="clip1_116_333">
<rect width="20" height="16" fill="white"/>
</clipPath>
</defs>
</svg>
