<svg width="35" height="35" viewBox="0 0 35 35" fill="none" xmlns="http://www.w3.org/2000/svg">
<g clip-path="url(#clip0_24_2488)">
<path d="M17.4998 0L18.7803 5.31711L21.1383 0.382417L21.2853 5.84955L24.6178 1.51296L23.6248 6.89118L27.7862 3.3422L25.6967 8.39648L30.5048 5.79021L27.4103 10.2996L32.6554 8.75L28.6907 12.5175L34.1434 12.0922L29.4821 14.9531L34.9039 15.6708L29.7498 17.5L34.9039 19.3293L29.4821 20.047L34.1434 22.9079L28.6907 22.4826L32.6554 26.25L27.4103 24.7004L30.5048 29.2098L25.6967 26.6035L27.7862 31.6579L23.6248 28.1089L24.6178 33.4871L21.2853 29.1504L21.1383 34.6176L18.7803 29.683L17.4998 35L16.2194 29.683L13.8614 34.6176L13.7144 29.1504L10.3819 33.4871L11.3748 28.1089L7.2136 31.6579L9.30299 26.6035L4.4948 29.2098L7.58938 24.7004L2.3444 26.25L6.3089 22.4826L0.856348 22.9079L5.51753 20.047L0.0957031 19.3293L5.24984 17.5L0.0957031 15.6708L5.51753 14.9531L0.856348 12.0922L6.3089 12.5175L2.3444 8.75L7.58938 10.2996L4.4948 5.79021L9.30299 8.39648L7.2136 3.3422L11.3748 6.89118L10.3819 1.51296L13.7144 5.84955L13.8614 0.382417L16.2194 5.31711L17.4998 0Z" fill="#E5AE99"/>
<path fill-rule="evenodd" clip-rule="evenodd" d="M24.1228 12.8776C24.4663 13.2213 24.4663 13.7785 24.1228 14.1221L16.5228 21.7222C16.1791 22.0657 15.6219 22.0657 15.2782 21.7222L11.2783 17.7222C10.9346 17.3785 10.9346 16.8213 11.2783 16.4776C11.6219 16.134 12.1791 16.134 12.5228 16.4776L15.9005 19.8553L22.8782 12.8776C23.2219 12.534 23.7791 12.534 24.1228 12.8776Z" fill="#23201F"/>
</g>
<defs>
<clipPath id="clip0_24_2488">
<rect width="35" height="35" fill="white"/>
</clipPath>
</defs>
</svg>
