<svg width="35" height="35" viewBox="0 0 35 35" fill="none" xmlns="http://www.w3.org/2000/svg">
<g clip-path="url(#clip0_24_2488)">
<path d="M17.5 0L18.7804 5.31711L21.1384 0.382417L21.2854 5.84955L24.6179 1.51296L23.625 6.89118L27.7863 3.3422L25.6968 8.39648L30.5049 5.79021L27.4104 10.2996L32.6555 8.75L28.6909 12.5175L34.1435 12.0922L29.4822 14.9531L34.9041 15.6708L29.75 17.5L34.9041 19.3293L29.4822 20.047L34.1435 22.9079L28.6909 22.4826L32.6555 26.25L27.4104 24.7004L30.5049 29.2098L25.6968 26.6035L27.7863 31.6579L23.625 28.1089L24.6179 33.4871L21.2854 29.1504L21.1384 34.6176L18.7804 29.683L17.5 35L16.2195 29.683L13.8615 34.6176L13.7145 29.1504L10.3821 33.4871L11.375 28.1089L7.21372 31.6579L9.30312 26.6035L4.49492 29.2098L7.5895 24.7004L2.34452 26.25L6.30902 22.4826L0.85647 22.9079L5.51766 20.047L0.0958252 19.3293L5.24996 17.5L0.0958252 15.6708L5.51766 14.9531L0.85647 12.0922L6.30902 12.5175L2.34452 8.75L7.5895 10.2996L4.49492 5.79021L9.30312 8.39648L7.21372 3.3422L11.375 6.89118L10.3821 1.51296L13.7145 5.84955L13.8615 0.382417L16.2195 5.31711L17.5 0Z" fill="#EADFD6"/>
<path fill-rule="evenodd" clip-rule="evenodd" d="M24.1227 12.8777C24.4662 13.2213 24.4662 13.7785 24.1227 14.1222L16.5226 21.7222C16.179 22.0657 15.6218 22.0657 15.2781 21.7222L11.2781 17.7222C10.9345 17.3785 10.9345 16.8213 11.2781 16.4777C11.6218 16.134 12.179 16.134 12.5226 16.4777L15.9004 19.8553L22.8781 12.8777C23.2218 12.534 23.779 12.534 24.1227 12.8777Z" fill="#E5AE99"/>
</g>
<defs>
<clipPath id="clip0_24_2488">
<rect width="35" height="35" fill="white"/>
</clipPath>
</defs>
</svg>
