<svg width="20" height="16" viewBox="0 0 20 16" fill="none" xmlns="http://www.w3.org/2000/svg">
<g clip-path="url(#clip0_116_315)">
<g clip-path="url(#clip1_116_315)">
<path d="M17 0H3C1.34315 0 0 1.34315 0 3V13C0 14.6569 1.34315 16 3 16H17C18.6569 16 20 14.6569 20 13V3C20 1.34315 18.6569 0 17 0Z" fill="white" fill-opacity="0.2"/>
<path d="M7.48016 10.2916L8.2676 5.58203H9.52703L8.73908 10.2916H7.48016Z" fill="#EADFD6"/>
<path d="M13.3068 5.69777C13.0573 5.60218 12.6663 5.5 12.178 5.5C10.9336 5.49987 10.057 6.13871 10.0495 7.05415C10.0425 7.73081 10.6753 8.10834 11.1531 8.3336C11.6433 8.56426 11.8081 8.71161 11.8058 8.91777C11.8027 9.23328 11.4143 9.37764 11.0523 9.37764C10.5482 9.37759 10.2804 9.30629 9.86681 9.13046L9.70453 9.05548L9.52777 10.1097C9.82197 10.2412 10.3659 10.3552 10.9307 10.3611C12.2545 10.361 13.1139 9.72969 13.1237 8.75217C13.1285 8.21635 12.7929 7.80873 12.0664 7.47261C11.6262 7.25463 11.3565 7.10938 11.3594 6.8888C11.3594 6.69299 11.5876 6.48371 12.0806 6.48371C12.4925 6.47703 12.7908 6.56871 13.0232 6.66412L13.1361 6.71836L13.3068 5.69777Z" fill="#EADFD6"/>
<path fill-rule="evenodd" clip-rule="evenodd" d="M15.563 5.58594H16.5362L17.5555 10.2924L16.3868 10.2925C16.3868 10.2925 16.2713 9.75168 16.2336 9.58687C16.1363 9.58687 15.7298 9.5863 15.3477 9.58577C15.0086 9.58529 14.6887 9.58485 14.6207 9.58485C14.5718 9.71222 14.3555 10.2924 14.3555 10.2924H13.0331L14.9035 5.97669C15.0359 5.67 15.2615 5.58594 15.563 5.58594ZM15.4846 7.30604C15.4846 7.30604 15.0871 8.35105 14.9829 8.62242L16.0283 8.6225C15.9779 8.38675 15.7369 7.26247 15.7369 7.26247L15.6516 6.85656C15.6183 6.94916 15.5721 7.07148 15.5366 7.16519C15.5044 7.25041 15.4811 7.31197 15.4846 7.30604Z" fill="#EADFD6"/>
<path d="M6.42328 5.58496L5.19031 8.79651L5.05891 8.14393C4.82939 7.39149 4.11417 6.57651 3.31464 6.16843L4.44208 10.2869L5.77459 10.2853L7.75732 5.58496H6.42328Z" fill="#EADFD6"/>
<path d="M4.0469 5.58204H2.01608L2 5.68008C3.57994 6.0698 4.62537 7.01196 5.05934 8.14383L4.61774 5.97968C4.54152 5.68148 4.32038 5.59252 4.0469 5.58204Z" fill="#EADFD6"/>
</g>
</g>
<defs>
<clipPath id="clip0_116_315">
<rect width="20" height="16" fill="white"/>
</clipPath>
<clipPath id="clip1_116_315">
<rect width="20" height="16" fill="white"/>
</clipPath>
</defs>
</svg>
