<svg width="60" height="60" viewBox="0 0 60 60" fill="none" xmlns="http://www.w3.org/2000/svg">
<g filter="url(#filter0_b_2285_4392)">
<rect width="60" height="60" rx="20" fill="black"/>
<path d="M30.5 16.1544C35.1725 16.1544 35.7267 16.1719 37.5729 16.2565C42.3154 16.4723 44.5306 18.7225 44.7465 23.43C44.831 25.2748 44.8471 25.829 44.8471 30.5015C44.8471 35.1754 44.8296 35.7281 44.7465 37.5729C44.5292 42.276 42.3198 44.5306 37.5729 44.7465C35.7267 44.831 35.1754 44.8485 30.5 44.8485C25.8275 44.8485 25.2733 44.831 23.4285 44.7465C18.6744 44.5292 16.4708 42.2688 16.255 37.5715C16.1704 35.7267 16.1529 35.174 16.1529 30.5C16.1529 25.8275 16.1719 25.2748 16.255 23.4285C16.4723 18.7225 18.6817 16.4708 23.4285 16.255C25.2748 16.1719 25.8275 16.1544 30.5 16.1544ZM30.5 13C25.7473 13 25.1523 13.0204 23.2856 13.105C16.9302 13.3967 13.3981 16.9229 13.1065 23.2842C13.0204 25.1523 13 25.7473 13 30.5C13 35.2527 13.0204 35.8492 13.105 37.7158C13.3967 44.0713 16.9229 47.6033 23.2842 47.895C25.1523 47.9796 25.7473 48 30.5 48C35.2527 48 35.8492 47.9796 37.7158 47.895C44.0654 47.6033 47.6063 44.0771 47.8935 37.7158C47.9796 35.8492 48 35.2527 48 30.5C48 25.7473 47.9796 25.1523 47.895 23.2856C47.6092 16.936 44.0785 13.3981 37.7173 13.1065C35.8492 13.0204 35.2527 13 30.5 13ZM30.5 21.5138C25.5373 21.5138 21.5138 25.5373 21.5138 30.5C21.5138 35.4627 25.5373 39.4877 30.5 39.4877C35.4627 39.4877 39.4863 35.4642 39.4863 30.5C39.4863 25.5373 35.4627 21.5138 30.5 21.5138ZM30.5 36.3333C27.2785 36.3333 24.6667 33.7229 24.6667 30.5C24.6667 27.2785 27.2785 24.6667 30.5 24.6667C33.7215 24.6667 36.3333 27.2785 36.3333 30.5C36.3333 33.7229 33.7215 36.3333 30.5 36.3333ZM39.8421 19.0594C38.6813 19.0594 37.7406 20 37.7406 21.1594C37.7406 22.3188 38.6813 23.2594 39.8421 23.2594C41.0015 23.2594 41.9406 22.3188 41.9406 21.1594C41.9406 20 41.0015 19.0594 39.8421 19.0594Z" fill="#F95841"/>
</g>
<defs>
<filter id="filter0_b_2285_4392" x="-60" y="-60" width="180" height="180" filterUnits="userSpaceOnUse" color-interpolation-filters="sRGB">
<feFlood flood-opacity="0" result="BackgroundImageFix"/>
<feGaussianBlur in="BackgroundImageFix" stdDeviation="30"/>
<feComposite in2="SourceAlpha" operator="in" result="effect1_backgroundBlur_2285_4392"/>
<feBlend mode="normal" in="SourceGraphic" in2="effect1_backgroundBlur_2285_4392" result="shape"/>
</filter>
</defs>
</svg>
