<svg width="60" height="60" viewBox="0 0 60 60" fill="none" xmlns="http://www.w3.org/2000/svg">
<g filter="url(#filter0_b_2285_4390)">
<rect width="60" height="60" rx="20" fill="black"/>
<path d="M45.61 21.762C43.6193 21.762 41.7786 21.098 40.3061 19.9822C38.6154 18.7021 37.3951 16.8197 36.9656 14.6566C36.8565 14.1226 36.802 13.5682 36.7951 13H31.1027V28.6141L31.0958 37.1639C31.0958 39.4502 29.6097 41.3874 27.5576 42.072C26.9577 42.2705 26.3169 42.3663 25.6488 42.3252C24.7898 42.2773 23.9922 42.0172 23.29 41.5996C21.8038 40.7098 20.8017 39.0943 20.7744 37.2392C20.7335 34.3505 23.0582 31.9889 25.9351 31.9889C26.501 31.9889 27.0463 32.0847 27.5576 32.249V27.9844V26.4579C27.0191 26.3757 26.4737 26.3346 25.9147 26.3346C22.7651 26.3346 19.82 27.6489 17.7134 30.0174C16.125 31.804 15.1705 34.0904 15.0205 36.4862C14.8297 39.6282 15.975 42.6196 18.1974 44.8238C18.5247 45.1455 18.8655 45.4467 19.2268 45.7274C21.1289 47.1991 23.4604 48 25.9147 48C26.4669 48 27.0191 47.9589 27.5576 47.8768C29.8483 47.5345 31.9617 46.4803 33.6319 44.8238C35.6839 42.7907 36.8156 40.0868 36.8292 37.2118L36.802 24.4385C37.7768 25.1983 38.8472 25.8212 39.9993 26.3073C41.7854 27.0671 43.6807 27.4436 45.6236 27.4436V23.2953V21.7551C45.6304 21.762 45.61 21.762 45.61 21.762Z" fill="#F95841"/>
</g>
<defs>
<filter id="filter0_b_2285_4390" x="-60" y="-60" width="180" height="180" filterUnits="userSpaceOnUse" color-interpolation-filters="sRGB">
<feFlood flood-opacity="0" result="BackgroundImageFix"/>
<feGaussianBlur in="BackgroundImageFix" stdDeviation="30"/>
<feComposite in2="SourceAlpha" operator="in" result="effect1_backgroundBlur_2285_4390"/>
<feBlend mode="normal" in="SourceGraphic" in2="effect1_backgroundBlur_2285_4390" result="shape"/>
</filter>
</defs>
</svg>
